HIERARCHY
ROOT hip
{
	OFFSET 0.000000 0.000000 0.000000 
	CHANNELS 6 Xposition Yposition Zposition Xrotation Zrotation Yrotation
	JOINT abdomen
	{
		OFFSET 0.000000 3.402643 0.000000 
		CHANNELS 3 Xrotation Zrotation Yrotation
		JOINT chest
		{
			OFFSET 0.000000 8.438565 -0.680529 
			CHANNELS 3 Xrotation Zrotation Yrotation
			JOINT neck
			{
				OFFSET 0.000000 10.207942 -0.272212 
				CHANNELS 3 Xrotation Zrotation Yrotation
				JOINT head
				{
					OFFSET 0.000000 3.130431 0.000000 
					CHANNELS 3 Xrotation Zrotation Yrotation
					End Site
					{
						OFFSET 0.000000 3.130435 0.000000 
					}
				}
			}
			JOINT lCollar
			{
				OFFSET 3.470700 6.669187 -0.816635 
				CHANNELS 3 Yrotation Zrotation Xrotation
				JOINT lShldr
				{
					OFFSET 3.198488 0.000000 0.000000 
					CHANNELS 3 Zrotation Yrotation Xrotation
					JOINT lForeArm
					{
						OFFSET 10.139888 0.000000 0.000000 
						CHANNELS 3 Yrotation Zrotation Xrotation
						JOINT lHand
						{
							OFFSET 8.370511 0.000000 0.000000 
							CHANNELS 3 Zrotation Yrotation Xrotation
							End Site
							{
								OFFSET 4.083176 0.000000 0.000000 
							}
						}
					}
				}
			}
			JOINT rCollar
			{
				OFFSET -3.470700 6.669187 -0.816635 
				CHANNELS 3 Yrotation Zrotation Xrotation
				JOINT rShldr
				{
					OFFSET -3.198488 0.000000 0.000000 
					CHANNELS 3 Zrotation Yrotation Xrotation
					JOINT rForeArm
					{
						OFFSET -10.139888 0.000000 0.000000 
						CHANNELS 3 Yrotation Zrotation Xrotation
						JOINT rHand
						{
							OFFSET -8.370511 0.000000 0.000000 
							CHANNELS 3 Zrotation Yrotation Xrotation
							End Site
							{
								OFFSET -4.083176 0.000000 0.000000 
							}
						}
					}
				}
			}
		}
	}
	JOINT lThigh
	{
		OFFSET 5.308129 -1.633274 1.361059 
		CHANNELS 3 Xrotation Zrotation Yrotation
		JOINT lShin
		{
			OFFSET -2.041588 -20.007561 0.000000 
			CHANNELS 3 Xrotation Zrotation Yrotation
			JOINT lFoot
			{
				OFFSET 0.000000 -19.190928 -1.224953 
				CHANNELS 3 Xrotation Yrotation Zrotation
				End Site
				{
					OFFSET 0.000000 -2.449906 4.627600 
				}
			}
		}
	}
	JOINT rThigh
	{
		OFFSET -5.308129 -1.633274 1.361059 
		CHANNELS 3 Xrotation Zrotation Yrotation
		JOINT rShin
		{
			OFFSET 2.041588 -20.007561 0.000000 
			CHANNELS 3 Xrotation Zrotation Yrotation
			JOINT rFoot
			{
				OFFSET 0.000000 -19.190928 -1.224953 
				CHANNELS 3 Xrotation Yrotation Zrotation
				End Site
				{
					OFFSET 0.000000 -2.449906 4.627600 
				}
			}
		}
	}
}
MOTION
Frames: 13
Frame Time: 0.033333
1.305755 45.389709 -1.630928 -10.987529 -1.054630 0.595782 0.000000 0.000000 0.000000 -2.211407 0.702983 -1.152377 2.564559 0.839520 -1.591912 11.910776 -1.357406 -0.273592 -8.094974 4.171201 -1.105555 15.960803 -61.664295 -38.123569 -0.184301 -9.913048 26.115570 4.775001 -15.939561 -4.033214 4.293897 1.312918 -1.509958 -15.931415 58.502113 -40.378761 0.355588 7.705867 46.639221 -14.064368 21.291046 -6.190867 -9.423820 18.583857 7.873111 48.589729 2.301229 -1.033282 -25.056355 3.300563 -14.957007 -9.177215 -19.366196 -10.516592 51.049828 -1.708903 -0.166235 -26.228231 -2.096996 8.959009 
1.306875 45.385345 -1.595830 -10.977207 -1.035104 0.576254 0.000000 0.000000 0.000000 -2.211713 0.683441 -1.210968 2.564568 0.790672 -1.689562 12.087664 -1.435527 -0.302884 -8.019189 4.014840 -1.114702 16.242966 -61.598007 -38.313457 -0.183329 -9.882758 26.270987 4.164188 -15.947099 -3.930637 4.339670 1.204986 -1.500118 -15.834421 58.532665 -40.370930 0.353261 7.690251 46.452774 -13.996992 21.243948 -6.181858 -9.383951 18.581097 7.886556 48.583866 2.244570 -1.009166 -25.067593 3.330735 -14.960442 -9.169259 -19.411444 -10.537422 51.084728 -1.755440 -0.108986 -26.320709 -2.092351 8.894175 
1.288767 45.435844 -1.557977 -10.985566 -1.015585 0.507733 0.000000 0.000000 0.000000 -2.220982 0.644380 -1.240266 2.576386 0.693033 -1.757920 12.401140 -1.357395 -0.361458 -7.940096 3.996494 -1.134211 16.035828 -61.564587 -38.301220 -0.181741 -9.838932 26.021498 4.846655 -16.160620 -4.051157 4.355615 1.067803 -1.500060 -15.379363 58.593754 -40.209167 0.362997 7.620987 46.389126 -13.889775 21.250793 -6.160596 -9.139375 18.570599 8.028648 48.282154 2.232439 -0.987999 -24.976923 3.332808 -14.980075 -8.983302 -19.361202 -10.528058 50.799923 -1.745697 -0.063819 -26.243395 -2.104093 8.885633 
1.287251 45.527512 -1.522457 -11.000527 -0.722643 0.351535 0.000000 0.000000 0.000000 -2.203773 0.331967 -1.123028 2.587920 0.605155 -1.845703 12.725171 -1.289021 -0.459308 -7.901725 3.928719 -1.143968 15.690389 -61.534492 -38.674339 -0.186984 -9.577365 25.963682 4.326670 -16.241446 -3.956571 4.392864 1.020213 -1.470594 -14.954477 58.533260 -39.883270 0.358384 7.633088 46.215340 -13.830955 21.254734 -6.148193 -8.669980 18.197491 8.087315 47.651848 2.096114 -0.779390 -24.704771 3.284181 -15.016902 -8.797637 -19.594688 -10.585113 50.422527 -1.816232 0.010276 -26.085621 -2.105202 8.905656 
1.281838 45.678680 -1.494710 -10.909731 -0.527342 0.166009 0.000000 0.000000 0.000000 -2.267983 0.126931 -1.064451 2.583187 0.448986 -1.845723 13.124743 -0.996048 -0.546962 -7.854811 3.494640 -1.259931 15.361158 -61.447399 -39.465088 -0.193329 -9.167419 25.662588 4.598023 -16.166420 -3.998532 4.528378 0.923447 -1.538453 -14.149072 58.460354 -39.178699 0.363931 7.619061 46.174469 -13.770631 21.279966 -6.131144 -8.192134 17.906015 8.202820 46.701965 1.952208 -0.496077 -24.241442 3.246398 -15.018397 -8.601993 -19.660212 -10.615499 49.772057 -1.855312 0.101682 -25.782623 -1.993311 8.713266 
1.275798 45.875652 -1.467785 -10.712132 -0.371093 -0.117248 0.000000 0.000000 0.000000 -2.431311 -0.019528 -0.966800 2.478289 0.361131 -1.894555 13.751920 -1.054623 -0.635018 -7.628906 3.160284 -1.424858 14.778465 -61.430557 -40.094051 -0.202095 -8.749296 24.771189 4.356744 -16.415899 -3.965788 4.615564 0.823801 -1.655053 -13.175376 58.469788 -38.396313 0.380589 7.579826 46.366779 -13.894470 21.359741 -6.166207 -7.614587 17.530602 8.274551 45.448002 1.812920 0.022700 -23.619972 3.190149 -15.175260 -8.466465 -19.665365 -10.532287 48.863361 -1.845537 0.101418 -25.327827 -1.951207 8.484020 
1.270259 46.099037 -1.448157 -10.369061 -0.322259 -0.361377 0.000000 0.000000 0.000000 -2.626204 -0.048822 -0.878914 2.238505 0.234252 -1.855453 14.268579 -0.820242 -0.752156 -7.395267 3.121287 -1.619525 14.317117 -61.405880 -40.297859 -0.249437 -8.404425 23.973433 3.907305 -16.491764 -3.887947 4.677702 0.836267 -1.839826 -12.533225 58.330437 -37.827671 0.376942 7.576222 45.976173 -13.616313 21.496893 -6.117909 -7.196311 17.232595 8.300766 44.110039 1.718802 0.448468 -22.967604 3.121199 -15.247815 -8.280932 -19.577570 -10.523301 47.730743 -1.718523 0.212610 -24.809973 -1.827551 8.273384 
1.264715 46.340137 -1.448845 -10.016874 -0.273425 -0.556681 0.000000 0.000000 0.000000 -2.782224 -0.068352 -0.820324 2.074446 0.175691 -1.835929 14.592345 -0.888587 -0.791223 -7.246706 2.931876 -1.774840 13.935629 -61.192280 -40.190502 -0.350533 -7.958638 23.967550 2.632360 -16.263288 -3.664742 4.630880 0.826798 -1.976353 -11.978630 58.199497 -37.352749 0.398463 7.405360 46.091099 -13.706496 21.489813 -6.141282 -6.728168 16.921761 8.308615 42.579762 1.640973 0.975437 -22.220247 3.049650 -15.362536 -8.027066 -19.411303 -10.521471 46.415108 -1.582019 0.009282 -24.106365 -1.767829 8.234580 
1.248352 46.562378 -1.471887 -9.566413 -0.322242 -0.693403 0.000000 0.000000 0.000000 -2.948829 -0.029294 -0.761724 1.837435 0.263542 -1.796856 14.888521 -1.093640 -0.810772 -7.086456 3.149199 -1.911943 13.252619 -60.862976 -39.518406 -0.539149 -7.504600 24.057350 2.917846 -16.735855 -3.723101 4.557950 0.895157 -2.132314 -11.816608 57.839729 -37.094646 0.433946 7.271078 45.660618 -13.815274 21.690100 -6.180633 -6.522839 16.822472 8.353965 41.199726 1.514236 1.288345 -21.439138 2.961171 -15.339164 -7.968189 -19.284218 -10.448949 45.061710 -1.396260 1.082464 -23.595427 -1.616691 7.745868 
1.227229 46.775063 -1.510204 -8.970842 -0.302711 -0.712932 0.000000 0.000000 0.000000 -3.212481 -0.029294 -0.800786 1.689683 0.292814 -1.865210 14.853341 -1.474482 -0.752207 -6.946797 3.445771 -2.136163 12.017089 -60.156391 -37.979252 -1.003012 -7.117427 24.116405 2.226398 -16.893536 -3.600465 4.296113 0.838623 -2.366759 -11.508181 57.436817 -36.329998 0.535941 7.126430 44.845882 -13.966752 21.981899 -6.260181 -6.504382 16.640980 8.341238 39.859299 1.353919 1.582494 -20.697521 2.791036 -15.319745 -7.967773 -19.438463 -10.290857 43.251911 -1.142692 5.266626 -23.510807 -1.360446 6.570570 
1.230127 47.001053 -1.545514 -8.374706 -0.283172 -0.849647 0.000000 0.000000 0.000000 -3.408203 0.000000 -0.830078 1.464255 0.331870 -1.787136 14.910202 -1.542868 -0.654586 -6.670952 3.486805 -2.321888 10.357401 -58.552731 -35.839268 -3.060422 -6.785569 23.595213 3.235645 -17.158073 -3.776974 4.022418 0.983668 -2.552830 -11.698230 56.804295 -35.526787 0.714195 6.999285 43.996986 -13.897692 22.184658 -6.259215 -6.318155 16.443441 8.336493 38.328018 1.202560 1.762991 -19.961555 2.710481 -15.234822 -7.840363 -19.269392 -10.294347 41.678234 -0.918015 4.696731 -22.534933 -1.374836 7.047694 
1.239053 47.208210 -1.594270 -7.652895 -0.205051 -0.937529 0.000000 0.000000 0.000000 -3.691561 0.009764 -0.908203 1.319288 0.292835 -1.728493 14.478073 -1.562426 -0.556966 -6.435194 3.391312 -2.595328 8.559837 -56.324799 -33.510128 -6.012926 -6.414354 22.979759 2.984636 -16.516510 -3.735291 3.728097 0.657833 -2.806873 -11.084735 55.746624 -34.326344 1.473147 6.812582 43.031284 -13.642920 22.348598 -6.220640 -6.375499 16.204769 8.269547 36.853912 1.046771 2.158162 -19.126596 2.602525 -15.195436 -7.861019 -19.158243 -10.253361 40.130474 -0.712519 4.444160 -21.682013 -1.393660 7.396869 
1.237884 47.421608 -1.617467 -7.126309 -0.126927 -1.171894 0.000000 0.000000 0.000000 -3.867049 -0.009765 -0.810549 1.259686 0.331885 -1.699247 14.125686 -1.503838 -0.547199 -6.194506 3.544363 -2.752123 7.240923 -54.191681 -31.622950 -7.626383 -6.080290 22.848106 1.971798 -16.096077 -3.549840 3.445331 0.634225 -2.944200 -10.090169 53.711121 -32.682819 3.806901 6.619726 41.990597 -12.934269 22.198944 -6.042218 -6.073701 15.944453 8.308716 35.329269 0.871278 2.505050 -18.386745 2.472041 -15.147958 -7.723217 -18.947462 -10.079639 38.529526 -0.663758 4.171395 -20.786163 -1.431724 7.788092 
